<svg xmlns="http://www.w3.org/2000/svg" xmlns:xlink="http://www.w3.org/1999/xlink">
    <symbol id="question-circle" fill="#1b9ac0" viewBox="0 0 16 16">
        <path d="M8 15A7 7 0 1 1 8 1a7 7 0 0 1 0 14m0 1A8 8 0 1 0 8 0a8 8 0 0 0 0 16" />
        <path
            d="M5.255 5.786a.237.237 0 0 0 .241.247h.825c.138 0 .248-.113.266-.25.09-.656.54-1.134 1.342-1.134.686 0 1.314.343 1.314 1.168 0 .635-.374.927-.965 1.371-.673.489-1.206 1.06-1.168 1.987l.003.217a.25.25 0 0 0 .25.246h.811a.25.25 0 0 0 .25-.25v-.105c0-.718.273-.927 1.01-1.486.609-.463 1.244-.977 1.244-2.056 0-1.511-1.276-2.241-2.673-2.241-1.267 0-2.655.59-2.75 2.286m1.557 5.763c0 .533.425.927 1.01.927.609 0 1.028-.394 1.028-.927 0-.552-.42-.94-1.029-.94-.584 0-1.009.388-1.009.94" />
    </symbol>

    <symbol id="graphql" viewBox="0 0 29.999 30" fill="#e10098">
        <path d="M4.08 22.864l-1.1-.636L15.248.98l1.1.636z" />
        <path d="M2.727 20.53h24.538v1.272H2.727z" />
        <path
            d="M15.486 28.332L3.213 21.246l.636-1.1 12.273 7.086zm10.662-18.47L13.874 2.777l.636-1.1 12.273 7.086z" />
        <path d="M3.852 9.858l-.636-1.1L15.5 1.67l.636 1.1z" />
        <path
            d="M25.922 22.864l-12.27-21.25 1.1-.636 12.27 21.25zM3.7 7.914h1.272v14.172H3.7zm21.328 0H26.3v14.172h-1.272z" />
        <path d="M15.27 27.793l-.555-.962 10.675-6.163.555.962z" />
        <path
            d="M27.985 22.5a2.68 2.68 0 0 1-3.654.981 2.68 2.68 0 0 1-.981-3.654 2.68 2.68 0 0 1 3.654-.981c1.287.743 1.724 2.375.98 3.654M6.642 10.174a2.68 2.68 0 0 1-3.654.981A2.68 2.68 0 0 1 2.007 7.5a2.68 2.68 0 0 1 3.654-.981 2.68 2.68 0 0 1 .981 3.654M2.015 22.5a2.68 2.68 0 0 1 .981-3.654 2.68 2.68 0 0 1 3.654.981 2.68 2.68 0 0 1-.981 3.654c-1.287.735-2.92.3-3.654-.98m21.343-12.326a2.68 2.68 0 0 1 .981-3.654 2.68 2.68 0 0 1 3.654.981 2.68 2.68 0 0 1-.981 3.654 2.68 2.68 0 0 1-3.654-.981M15 30a2.674 2.674 0 1 1 2.674-2.673A2.68 2.68 0 0 1 15 30m0-24.652a2.67 2.67 0 0 1-2.674-2.674 2.67 2.67 0 1 1 5.347 0A2.67 2.67 0 0 1 15 5.347" />
    </symbol>

    <symbol id="pseven" viewBox="0 0 256 256">
        <g transform="translate(0,-796.36219)">
            <g transform="matrix(1.6479736,0,0,-1.6479736,139.8135,1005.1014)">
                <path style="fill:#f58535;fill-opacity:1;fill-rule:nonzero;stroke:none"
                    d="m 0,0 c -2.926,-3.463 -6.516,-6.923 -10.817,-6.96 -4.22,-0.037 -10.533,1.268 -14.224,11.183 -4.239,11.39 -2.696,28.28 -2.696,28.28 0,0 1.601,17.75 3.42,22.867 0.858,2.415 3.212,3.176 3.761,-0.028 0.154,-0.899 -1.289,-13.213 -1.591,-16.768 -0.774,-9.162 -1.763,-16.686 0.242,-26.781 1.817,-9.144 4.919,-15.98 11.039,-15.311 8.94,0.978 8.863,15.246 15.516,15.756 C 11.302,12.748 4.801,5.677 0,0 M 21.896,63.562 C 4.869,38.556 7.477,27.718 1.246,30.833 c -5.845,2.922 8.919,19.15 18.703,35.651 8.359,14.098 15.305,27.795 12.663,30.585 -2.373,2.507 -10.307,-0.668 -23.279,-4.279 -19.742,-5.498 -33.007,-13.487 -32.929,-7.475 0.059,4.637 10.175,3.851 20.16,6.529 18.563,4.979 31.144,11.421 38.376,12.113 l -5.187,8.985 -73.842,0 -36.921,-63.949 3.033,-5.254 c 4.931,4.252 15.601,11.119 28.502,16.82 11.85,5.236 27.943,8.332 37.139,10.312 5.603,1.207 14.057,1.672 16.115,0.678 2.172,-1.051 -0.542,-4.686 -5.065,-6.039 -5.889,-1.761 -13.929,-0.39 -25.103,-2.14 -8.196,-1.284 -16.368,-4.461 -17.463,-5.656 -3.201,-3.491 1.628,-59.989 -4.365,-59.923 -5.136,0.058 -2.914,12.538 -2.326,25.578 0.481,10.684 1.447,22.01 1.047,27.998 -0.216,3.255 -3.153,3.823 -5.701,2.273 -18.907,-11.489 -14.865,-16.914 -17.249,-19.003 -0.06,-0.053 -0.126,-0.1 -0.191,-0.146 l 28.548,-49.446 73.841,-10e-4 36.921,63.949 -26.915,46.618 C 36.209,85.426 25.018,68.145 21.896,63.562" />
            </g>
        </g>
    </symbol>

    <symbol id="rest-api" viewBox="0 0 64 64">
        <linearGradient id="fxbNZYRZE2dEDA6EAjTEca" x1="32" x2="32" y1="807.083" y2="772.742"
            gradientTransform="matrix(1 0 0 -1 0 822)" gradientUnits="userSpaceOnUse"
            spreadMethod="reflect">
            <stop offset="0" stop-color="#6dc7ff" />
            <stop offset="1" stop-color="#e6abff" />
        </linearGradient>
        <path fill="url(#fxbNZYRZE2dEDA6EAjTEca)"
            d="M32,49c-9.374,0-17-7.626-17-17s7.626-17,17-17s17,7.626,17,17S41.374,49,32,49z M32,17 c-8.271,0-15,6.729-15,15s6.729,15,15,15s15-6.729,15-15S40.271,17,32,17z" />
        <g>
            <linearGradient id="fxbNZYRZE2dEDA6EAjTEcb" x1="32" x2="32" y1="4.75" y2="60.5"
                gradientUnits="userSpaceOnUse" spreadMethod="reflect">
                <stop offset="0" stop-color="#1a6dff" />
                <stop offset="1" stop-color="#c822ff" />
            </linearGradient>
            <path fill="url(#fxbNZYRZE2dEDA6EAjTEcb)"
                d="M25.605,26h-1.21c-1.02,0-1.875,0.765-1.99,1.775L21,38h2.017l0.414-3h3.142l0.414,3H29 l-1.41-10.225C27.48,26.765,26.625,26,25.605,26z M23.706,33l0.689-5h1.21l0.69,5H23.706z M58.955,30.421 c-0.105-1.636-1.309-2.962-2.921-3.222c-0.915-0.155-2.006-0.332-2.906-0.478l-0.211-0.034c-0.564-0.091-1.021-0.486-1.192-1.031 c-0.33-1.055-0.762-2.104-1.285-3.125c-0.263-0.504-0.22-1.103,0.118-1.571c0.544-0.77,1.249-1.745,1.832-2.553 c0.962-1.333,0.876-3.126-0.218-4.37c-0.714-0.791-1.462-1.534-2.226-2.214c-1.233-1.084-3.022-1.17-4.345-0.213 c-0.816,0.581-1.797,1.288-2.566,1.843c-0.462,0.335-1.066,0.378-1.572,0.113c-0.981-0.512-2.028-0.949-3.118-1.3 c-0.542-0.17-0.935-0.624-1.027-1.194c-0.159-0.93-0.351-2.117-0.51-3.1c-0.263-1.623-1.591-2.83-3.245-2.936 c-1.063-0.054-2.118-0.051-3.14,0.008c-1.636,0.105-2.962,1.309-3.222,2.921c-0.155,0.915-0.332,2.006-0.478,2.906l-0.034,0.211 c-0.091,0.564-0.486,1.021-1.031,1.192c-1.055,0.33-2.104,0.762-3.125,1.285c-0.504,0.265-1.102,0.22-1.571-0.118 c-0.77-0.544-1.745-1.249-2.553-1.832c-1.334-0.963-3.126-0.876-4.37,0.218c-0.791,0.714-1.534,1.462-2.214,2.226 c-1.083,1.232-1.169,3.021-0.213,4.345c0.581,0.816,1.288,1.797,1.843,2.566c0.335,0.463,0.378,1.066,0.113,1.572 c-0.512,0.981-0.949,2.028-1.3,3.118c-0.17,0.542-0.624,0.935-1.194,1.027c-0.93,0.159-2.117,0.351-3.101,0.51 c-1.623,0.263-2.83,1.591-2.936,3.245c-0.054,1.064-0.052,2.118,0.008,3.14c0.105,1.636,1.309,2.962,2.921,3.222 c0.915,0.155,2.006,0.332,2.906,0.478l0.211,0.034c0.564,0.091,1.021,0.486,1.192,1.031c0.33,1.055,0.762,2.104,1.285,3.125 c0.263,0.504,0.22,1.103-0.118,1.571c-0.544,0.77-1.249,1.745-1.832,2.553c-0.962,1.333-0.876,3.126,0.218,4.37 c0.714,0.791,1.462,1.534,2.226,2.214c1.232,1.082,3.021,1.168,4.345,0.213c0.816-0.581,1.797-1.288,2.566-1.843 c0.463-0.335,1.065-0.378,1.572-0.113c0.981,0.512,2.028,0.949,3.118,1.3c0.542,0.17,0.935,0.624,1.027,1.194 c0.159,0.93,0.351,2.117,0.51,3.101c0.263,1.623,1.591,2.83,3.245,2.936c0.505,0.026,1.007,0.039,1.506,0.039 c0.552,0,1.097-0.016,1.634-0.048c1.636-0.105,2.962-1.309,3.222-2.921c0.155-0.915,0.332-2.006,0.478-2.906l0.034-0.211 c0.091-0.564,0.486-1.021,1.031-1.192c1.055-0.33,2.104-0.762,3.125-1.285c0.505-0.264,1.103-0.219,1.571,0.118 c0.77,0.544,1.745,1.249,2.553,1.832c1.334,0.962,3.125,0.875,4.37-0.218c0.791-0.714,1.534-1.462,2.214-2.226 c1.083-1.232,1.169-3.021,0.213-4.345c-0.581-0.816-1.288-1.797-1.843-2.566c-0.335-0.463-0.378-1.066-0.113-1.572 c0.512-0.981,0.949-2.028,1.3-3.118c0.17-0.542,0.624-0.935,1.194-1.027c0.93-0.159,2.117-0.351,3.101-0.51 c1.623-0.263,2.83-1.591,2.936-3.245C59.017,32.497,59.015,31.443,58.955,30.421z M56.967,33.45 c-0.045,0.702-0.563,1.272-1.258,1.384c-0.989,0.159-2.184,0.352-3.11,0.511c-1.313,0.213-2.375,1.133-2.771,2.395 c-0.314,0.976-0.707,1.917-1.167,2.797c-0.618,1.182-0.517,2.588,0.263,3.669c0.553,0.765,1.257,1.742,1.839,2.56 c0.411,0.567,0.374,1.332-0.085,1.854c-0.628,0.706-1.32,1.401-2.047,2.058c-0.528,0.465-1.296,0.501-1.868,0.09 c-0.813-0.587-1.794-1.295-2.561-1.837c-1.079-0.778-2.482-0.879-3.654-0.267c-0.913,0.468-1.856,0.856-2.803,1.152 c-1.273,0.399-2.195,1.465-2.408,2.78l-0.034,0.211c-0.145,0.895-0.321,1.982-0.476,2.899c-0.112,0.692-0.679,1.207-1.372,1.251 c-0.944,0.055-1.924,0.058-2.903,0.008c-0.702-0.045-1.272-0.563-1.384-1.258c-0.159-0.989-0.352-2.184-0.511-3.11 c-0.213-1.313-1.133-2.375-2.395-2.771c-0.976-0.314-1.917-0.707-2.797-1.167c-0.515-0.268-1.071-0.401-1.625-0.401 c-0.719,0-1.434,0.223-2.044,0.664c-0.765,0.553-1.742,1.257-2.56,1.839c-0.567,0.412-1.332,0.373-1.854-0.085 c-0.706-0.628-1.401-1.32-2.058-2.047c-0.465-0.528-0.502-1.297-0.09-1.868c0.587-0.813,1.295-1.794,1.837-2.561 c0.779-1.079,0.88-2.482,0.267-3.654c-0.468-0.913-0.856-1.856-1.152-2.803c-0.399-1.273-1.465-2.195-2.78-2.408l-0.211-0.034 c-0.895-0.145-1.982-0.321-2.899-0.476c-0.692-0.112-1.207-0.679-1.251-1.372c-0.055-0.944-0.057-1.925-0.008-2.903 c0.045-0.702,0.563-1.272,1.258-1.384c0.989-0.159,2.184-0.352,3.11-0.511c1.313-0.213,2.375-1.133,2.771-2.395 c0.314-0.976,0.707-1.917,1.167-2.797c0.618-1.182,0.517-2.588-0.263-3.669c-0.553-0.765-1.257-1.742-1.839-2.56 c-0.411-0.567-0.374-1.332,0.085-1.854c0.628-0.706,1.32-1.401,2.047-2.058c0.529-0.465,1.296-0.502,1.868-0.09 c0.813,0.587,1.794,1.295,2.561,1.837c1.078,0.779,2.482,0.88,3.654,0.267c0.913-0.468,1.856-0.856,2.803-1.152 c1.273-0.399,2.195-1.465,2.408-2.78l0.034-0.211c0.145-0.895,0.321-1.982,0.476-2.899c0.112-0.692,0.679-1.207,1.372-1.251 c0.943-0.055,1.924-0.057,2.903-0.008c0.702,0.045,1.272,0.563,1.384,1.258c0.159,0.989,0.352,2.184,0.511,3.11 c0.213,1.313,1.133,2.375,2.395,2.771c0.976,0.314,1.917,0.707,2.797,1.167c1.181,0.617,2.587,0.516,3.669-0.263 c0.765-0.553,1.742-1.257,2.56-1.839c0.568-0.411,1.333-0.373,1.854,0.085c0.706,0.628,1.401,1.32,2.058,2.047 c0.465,0.528,0.502,1.297,0.09,1.868c-0.587,0.813-1.295,1.794-1.837,2.561c-0.779,1.079-0.88,2.482-0.267,3.654 c0.468,0.913,0.856,1.856,1.152,2.803c0.399,1.273,1.465,2.195,2.78,2.408l0.211,0.034c0.895,0.145,1.982,0.321,2.899,0.476 c0.692,0.112,1.207,0.679,1.251,1.372C57.014,31.491,57.016,32.472,56.967,33.45z M36,26h-5v12h2v-4h3c1.655,0,3-1.345,3-3v-2 C39,27.345,37.655,26,36,26z M37,31c0,0.55-0.45,1-1,1h-3v-4h3c0.55,0,1,0.45,1,1V31z M41,38h2V26h-2V38z" />
        </g>
    </symbol>

    <symbol id="key" fill="currentColor" viewBox="0 0 16 16">
        <path
            d="M0 8a4 4 0 0 1 7.465-2H14a.5.5 0 0 1 .354.146l1.5 1.5a.5.5 0 0 1 0 .708l-1.5 1.5a.5.5 0 0 1-.708 0L13 9.207l-.646.647a.5.5 0 0 1-.708 0L11 9.207l-.646.647a.5.5 0 0 1-.708 0L9 9.207l-.646.647A.5.5 0 0 1 8 10h-.535A4 4 0 0 1 0 8m4-3a3 3 0 1 0 2.712 4.285A.5.5 0 0 1 7.163 9h.63l.853-.854a.5.5 0 0 1 .708 0l.646.647.646-.647a.5.5 0 0 1 .708 0l.646.647.646-.647a.5.5 0 0 1 .708 0l.646.647.793-.793-1-1h-6.63a.5.5 0 0 1-.451-.285A3 3 0 0 0 4 5" />
        <path d="M4 8a1 1 0 1 1-2 0 1 1 0 0 1 2 0" />
    </symbol>

    <symbol id="apps" viewBox="0 0 24 24">
        <path
            d="M16,20H20V16H16M16,14H20V10H16M10,8H14V4H10M16,8H20V4H16M10,14H14V10H10M4,14H8V10H4M4,20H8V16H4M10,20H14V16H10M4,8H8V4H4V8Z"
            fill="currentColor" />
    </symbol>

    <symbol id="tools" fill="currentColor" viewBox="0 0 16 16">
        <path
            d="M1 0 0 1l2.2 3.081a1 1 0 0 0 .815.419h.07a1 1 0 0 1 .708.293l2.675 2.675-2.617 2.654A3.003 3.003 0 0 0 0 13a3 3 0 1 0 5.878-.851l2.654-2.617.968.968-.305.914a1 1 0 0 0 .242 1.023l3.27 3.27a.997.997 0 0 0 1.414 0l1.586-1.586a.997.997 0 0 0 0-1.414l-3.27-3.27a1 1 0 0 0-1.023-.242L10.5 9.5l-.96-.96 2.68-2.643A3.005 3.005 0 0 0 16 3q0-.405-.102-.777l-2.14 2.141L12 4l-.364-1.757L13.777.102a3 3 0 0 0-3.675 3.68L7.462 6.46 4.793 3.793a1 1 0 0 1-.293-.707v-.071a1 1 0 0 0-.419-.814zm9.646 10.646a.5.5 0 0 1 .708 0l2.914 2.915a.5.5 0 0 1-.707.707l-2.915-2.914a.5.5 0 0 1 0-.708M3 11l.471.242.529.026.287.445.445.287.026.529L5 13l-.242.471-.026.529-.445.287-.287.445-.529.026L3 15l-.471-.242L2 14.732l-.287-.445L1.268 14l-.026-.529L1 13l.242-.471.026-.529.445-.287.287-.445.529-.026z" />
    </symbol>

    <symbol id="clock" viewBox="0 0 16 16" fill="currentColor">
        <path d="M8 3.5a.5.5 0 0 0-1 0V9a.5.5 0 0 0 .252.434l3.5 2a.5.5 0 0 0 .496-.868L8 8.71z" />
        <path d="M8 16A8 8 0 1 0 8 0a8 8 0 0 0 0 16m7-8A7 7 0 1 1 1 8a7 7 0 0 1 14 0" />
    </symbol>

    <symbol id="eye" viewBox="0 0 16 16" fill="currentColor">
        <path
            d="M16 8s-3-5.5-8-5.5S0 8 0 8s3 5.5 8 5.5S16 8 16 8M1.173 8a13 13 0 0 1 1.66-2.043C4.12 4.668 5.88 3.5 8 3.5s3.879 1.168 5.168 2.457A13 13 0 0 1 14.828 8q-.086.13-.195.288c-.335.48-.83 1.12-1.465 1.755C11.879 11.332 10.119 12.5 8 12.5s-3.879-1.168-5.168-2.457A13 13 0 0 1 1.172 8z" />
        <path
            d="M8 5.5a2.5 2.5 0 1 0 0 5 2.5 2.5 0 0 0 0-5M4.5 8a3.5 3.5 0 1 1 7 0 3.5 3.5 0 0 1-7 0" />
    </symbol>

    <symbol id="list" viewBox="0 0 16 16" fill="currentColor">
        <path fill-rule="evenodd"
            d="M2.5 12a.5.5 0 0 1 .5-.5h10a.5.5 0 0 1 0 1H3a.5.5 0 0 1-.5-.5m0-4a.5.5 0 0 1 .5-.5h10a.5.5 0 0 1 0 1H3a.5.5 0 0 1-.5-.5m0-4a.5.5 0 0 1 .5-.5h10a.5.5 0 0 1 0 1H3a.5.5 0 0 1-.5-.5" />
    </symbol>

    <symbol id="trash" fill="currentColor" viewBox="0 0 16 16">
        <path
            d="M5.5 5.5A.5.5 0 0 1 6 6v6a.5.5 0 0 1-1 0V6a.5.5 0 0 1 .5-.5m2.5 0a.5.5 0 0 1 .5.5v6a.5.5 0 0 1-1 0V6a.5.5 0 0 1 .5-.5m3 .5a.5.5 0 0 0-1 0v6a.5.5 0 0 0 1 0z" />
        <path
            d="M14.5 3a1 1 0 0 1-1 1H13v9a2 2 0 0 1-2 2H5a2 2 0 0 1-2-2V4h-.5a1 1 0 0 1-1-1V2a1 1 0 0 1 1-1H6a1 1 0 0 1 1-1h2a1 1 0 0 1 1 1h3.5a1 1 0 0 1 1 1zM4.118 4 4 4.059V13a1 1 0 0 0 1 1h6a1 1 0 0 0 1-1V4.059L11.882 4zM2.5 3h11V2h-11z" />
    </symbol>

    <symbol id="cloud-arrow-down" fill="currentColor" viewBox="0 0 16 16">
        <path fill-rule="evenodd"
            d="M7.646 10.854a.5.5 0 0 0 .708 0l2-2a.5.5 0 0 0-.708-.708L8.5 9.293V5.5a.5.5 0 0 0-1 0v3.793L6.354 8.146a.5.5 0 1 0-.708.708z" />
        <path
            d="M4.406 3.342A5.53 5.53 0 0 1 8 2c2.69 0 4.923 2 5.166 4.579C14.758 6.804 16 8.137 16 9.773 16 11.569 14.502 13 12.687 13H3.781C1.708 13 0 11.366 0 9.318c0-1.763 1.266-3.223 2.942-3.593.143-.863.698-1.723 1.464-2.383m.653.757c-.757.653-1.153 1.44-1.153 2.056v.448l-.445.049C2.064 6.805 1 7.952 1 9.318 1 10.785 2.23 12 3.781 12h8.906C13.98 12 15 10.988 15 9.773c0-1.216-1.02-2.228-2.313-2.228h-.5v-.5C12.188 4.825 10.328 3 8 3a4.53 4.53 0 0 0-2.941 1.1z" />
    </symbol>

    <symbol id="copy" fill="currentColor" viewBox="0 0 16 16">
        <path fill-rule="evenodd"
            d="M4 2a2 2 0 0 1 2-2h8a2 2 0 0 1 2 2v8a2 2 0 0 1-2 2H6a2 2 0 0 1-2-2zm2-1a1 1 0 0 0-1 1v8a1 1 0 0 0 1 1h8a1 1 0 0 0 1-1V2a1 1 0 0 0-1-1zM2 5a1 1 0 0 0-1 1v8a1 1 0 0 0 1 1h8a1 1 0 0 0 1-1v-1h1v1a2 2 0 0 1-2 2H2a2 2 0 0 1-2-2V6a2 2 0 0 1 2-2h1v1z" />
    </symbol>

    <symbol id="arrow-up-square" fill="currentColor" viewBox="0 0 16 16">
        <path fill-rule="evenodd"
            d="M15 2a1 1 0 0 0-1-1H2a1 1 0 0 0-1 1v12a1 1 0 0 0 1 1h12a1 1 0 0 0 1-1zM0 2a2 2 0 0 1 2-2h12a2 2 0 0 1 2 2v12a2 2 0 0 1-2 2H2a2 2 0 0 1-2-2zm8.5 9.5a.5.5 0 0 1-1 0V5.707L5.354 7.854a.5.5 0 1 1-.708-.708l3-3a.5.5 0 0 1 .708 0l3 3a.5.5 0 0 1-.708.708L8.5 5.707z" />
    </symbol>

    <symbol id="x" fill="currentColor" viewBox="0 0 16 16">
        <path
            d="M4.646 4.646a.5.5 0 0 1 .708 0L8 7.293l2.646-2.647a.5.5 0 0 1 .708.708L8.707 8l2.647 2.646a.5.5 0 0 1-.708.708L8 8.707l-2.646 2.647a.5.5 0 0 1-.708-.708L7.293 8 4.646 5.354a.5.5 0 0 1 0-.708" />
    </symbol>

    <symbol id="chevron-right" fill="currentColor" viewBox="0 0 16 16">
        <path fill-rule="evenodd"
            d="M4.646 1.646a.5.5 0 0 1 .708 0l6 6a.5.5 0 0 1 0 .708l-6 6a.5.5 0 0 1-.708-.708L10.293 8 4.646 2.354a.5.5 0 0 1 0-.708" />
    </symbol>

    <symbol id="chevron-down" fill="currentColor" viewBox="0 0 16 16">
        <path fill-rule="evenodd"
            d="M1.646 4.646a.5.5 0 0 1 .708 0L8 10.293l5.646-5.647a.5.5 0 0 1 .708.708l-6 6a.5.5 0 0 1-.708 0l-6-6a.5.5 0 0 1 0-.708" />
    </symbol>

    <symbol id="pencil-fill" fill="currentColor" viewBox="0 0 16 16">
        <path
            d="M12.854.146a.5.5 0 0 0-.707 0L10.5 1.793 14.207 5.5l1.647-1.646a.5.5 0 0 0 0-.708zm.646 6.061L9.793 2.5 3.293 9H3.5a.5.5 0 0 1 .5.5v.5h.5a.5.5 0 0 1 .5.5v.5h.5a.5.5 0 0 1 .5.5v.5h.5a.5.5 0 0 1 .5.5v.207zm-7.468 7.468A.5.5 0 0 1 6 13.5V13h-.5a.5.5 0 0 1-.5-.5V12h-.5a.5.5 0 0 1-.5-.5V11h-.5a.5.5 0 0 1-.5-.5V10h-.5a.5.5 0 0 1-.175-.032l-.179.178a.5.5 0 0 0-.11.168l-2 5a.5.5 0 0 0 .65.65l5-2a.5.5 0 0 0 .168-.11z" />
    </symbol>

    <symbol id="arrow-clockwise" fill="currentColor" viewBox="0 0 16 16">l <path fill-rule="evenodd"
            d="M8 3a5 5 0 1 0 4.546 2.914.5.5 0 0 1 .908-.417A6 6 0 1 1 8 2z" />
        <path
            d="M8 4.466V.534a.25.25 0 0 1 .41-.192l2.36 1.966c.12.1.12.284 0 .384L8.41 4.658A.25.25 0 0 1 8 4.466" />
    </symbol>

    <symbol id="empty" width="10" height="10"></symbol>
</svg>
